# xmcd
#
# Track frame offsets:
#	150
#	28625
#	53233
#	79195
#	102734
#	130811
#	155860
#
# Disc length: 2623 seconds
#
# Revision: 4294770686
# Processed by: cddbd v1.5.2PL0 Copyright (c) Steve Scherf et al.
# Submitted via: EZCDAudioConverter 8.1.0.1
#
DISCID=5d0a3d07
DTITLE=Lucinda Williams - The Ghosts Of Highway 20
DYEAR=2016
DGENRE=Country
TTITLE0=Dust
TTITLE1=House Of Earth
TTITLE2=I Know All About It
TTITLE3=Place In My Heart
TTITLE4=Death Came
TTITLE5=Doors Of Heaven
TTITLE6=Louisiana Story
EXTD=
EXTT0=
EXTT1=
EXTT2=
EXTT3=
EXTT4=
EXTT5=
EXTT6=
PLAYORDER=
